[Header]
FileType HTR
DataType HTRS
FileVersion 1
NumSegments 64
NumFrames 3
DataFrameRate 24
EulerRotationOrder ZYX
CalibrationUnits mm
RotationUnits Degrees
GlobalAxisofGravity Y
BoneLengthAxis Y
ScaleFactor 1.0
[SegmentNames&Hierarchy]
Hips	GLOBAL
Spine	Hips
Spine1	Spine
Spine2	Spine1
Neck	Spine2
Head	Neck
LeftEye	Head
RightEye	Head
LeftShoulder	Spine2
LeftArm	LeftShoulder
LeftForeArm	LeftArm
LeftHand	LeftForeArm
LeftHandThumb1	LeftHand
LeftHandThumb2	LeftHandThumb1
LeftHandThumb3	LeftHandThumb2
LeftHandThumb4	LeftHandThumb3
LeftHandIndex1	LeftHand
LeftHandIndex2	LeftHandIndex1
LeftHandIndex3	LeftHandIndex2
LeftHandIndex4	LeftHandIndex3
LeftHandMiddle1	LeftHand
LeftHandMiddle2	LeftHandMiddle1
LeftHandMiddle3	LeftHandMiddle2
LeftHandMiddle4	LeftHandMiddle3
LeftHandRing1	LeftHand
LeftHandRing2	LeftHandRing1
LeftHandRing3	LeftHandRing2
LeftHandRing4	LeftHandRing3
LeftHandPinky1	LeftHand
LeftHandPinky2	LeftHandPinky1
LeftHandPinky3	LeftHandPinky2
LeftHandPinky4	LeftHandPinky3
RightShoulder	Spine2
RightArm	RightShoulder
RightForeArm	RightArm
RightHand	RightForeArm
RightHandPinky1	RightHand
RightHandPinky2	RightHandPinky1
RightHandPinky3	RightHandPinky2
RightHandPinky4	RightHandPinky3
RightHandRing1	RightHand
RightHandRing2	RightHandRing1
RightHandRing3	RightHandRing2
RightHandRing4	RightHandRing3
RightHandMiddle1	RightHand
RightHandMiddle2	RightHandMiddle1
RightHandMiddle3	RightHandMiddle2
RightHandMiddle4	RightHandMiddle3
RightHandIndex1	RightHand
RightHandIndex2	RightHandIndex1
RightHandIndex3	RightHandIndex2
RightHandIndex4	RightHandIndex3
RightHandThumb1	RightHand
RightHandThumb2	RightHandThumb1
RightHandThumb3	RightHandThumb2
RightHandThumb4	RightHandThumb3
LeftUpLeg	Hips
LeftLeg	LeftUpLeg
LeftFoot	LeftLeg
LeftToeBase	LeftFoot
RightUpLeg	Hips
RightLeg	RightUpLeg
RightFoot	RightLeg
RightToeBase	RightFoot
[BasePosition]
Hips	0	0	0	0	0	0	1
Spine	0	0	0	0	0	0	1
Spine1	0	0	0	0	0	0	1
Spine2	0	0	0	0	0	0	1
Neck	0	0	0	0	0	0	1
Head	0	0	0	0	0	0	1
LeftEye	0	0	0	0	0	0	1
RightEye	0	0	0	0	0	0	1
LeftShoulder	0	0	0	0	0	0	1
LeftArm	0	0	0	0	0	0	1
LeftForeArm	0	0	0	0	0	0	1
LeftHand	0	0	0	0	0	0	1
LeftHandThumb1	0	0	0	0	0	0	1
LeftHandThumb2	0	0	0	0	0	0	1
LeftHandThumb3	0	0	0	0	0	0	1
LeftHandThumb4	0	0	0	0	0	0	1
LeftHandIndex1	0	0	0	0	0	0	1
LeftHandIndex2	0	0	0	0	0	0	1
LeftHandIndex3	0	0	0	0	0	0	1
LeftHandIndex4	0	0	0	0	0	0	1
LeftHandMiddle1	0	0	0	0	0	0	1
LeftHandMiddle2	0	0	0	0	0	0	1
LeftHandMiddle3	0	0	0	0	0	0	1
LeftHandMiddle4	0	0	0	0	0	0	1
LeftHandRing1	0	0	0	0	0	0	1
LeftHandRing2	0	0	0	0	0	0	1
LeftHandRing3	0	0	0	0	0	0	1
LeftHandRing4	0	0	0	0	0	0	1
LeftHandPinky1	0	0	0	0	0	0	1
LeftHandPinky2	0	0	0	0	0	0	1
LeftHandPinky3	0	0	0	0	0	0	1
LeftHandPinky4	0	0	0	0	0	0	1
RightShoulder	0	0	0	0	0	0	1
RightArm	0	0	0	0	0	0	1
RightForeArm	0	0	0	0	0	0	1
RightHand	0	0	0	0	0	0	1
RightHandPinky1	0	0	0	0	0	0	1
RightHandPinky2	0	0	0	0	0	0	1
RightHandPinky3	0	0	0	0	0	0	1
RightHandPinky4	0	0	0	0	0	0	1
RightHandRing1	0	0	0	0	0	0	1
RightHandRing2	0	0	0	0	0	0	1
RightHandRing3	0	0	0	0	0	0	1
RightHandRing4	0	0	0	0	0	0	1
RightHandMiddle1	0	0	0	0	0	0	1
RightHandMiddle2	0	0	0	0	0	0	1
RightHandMiddle3	0	0	0	0	0	0	1
RightHandMiddle4	0	0	0	0	0	0	1
RightHandIndex1	0	0	0	0	0	0	1
RightHandIndex2	0	0	0	0	0	0	1
RightHandIndex3	0	0	0	0	0	0	1
RightHandIndex4	0	0	0	0	0	0	1
RightHandThumb1	0	0	0	0	0	0	1
RightHandThumb2	0	0	0	0	0	0	1
RightHandThumb3	0	0	0	0	0	0	1
RightHandThumb4	0	0	0	0	0	0	1
LeftUpLeg	0	0	0	0	0	0	1
LeftLeg	0	0	0	0	0	0	1
LeftFoot	0	0	0	0	0	0	1
LeftToeBase	0	0	0	0	0	0	1
RightUpLeg	0	0	0	0	0	0	1
RightLeg	0	0	0	0	0	0	1
RightFoot	0	0	0	0	0	0	1
RightToeBase	0	0	0	0	0	0	1
[Hips]
3	5.429800987	1027.835938	143.859848	3.423265457	0.4134704173	-0.3985280991	1.0
4	9.073156357	1010.365845	211.1280212	3.823139429	-1.409975648	-2.564248085	1.0
5	12.38822174	988.437439	281.3568115	4.122794628	-2.860622883	-3.593535423	1.0
[Spine]
3	0	101.8159943	1.315000057	5.129881382	1.161839485	0.8982468843	1.0
4	0	101.8159943	1.315000057	4.501936913	3.05437541	3.999738932	1.0
5	0	101.8159943	1.315000057	3.871635199	3.730222702	4.664114475	1.0
[Spine1]
3	0	100.8349991	-10.00800037	1.962509751	-0.9337294698	-0.4175902605	1.0
4	0	100.8349991	-10.00800037	1.993932724	-0.1164331064	-1.616425753	1.0
5	0	100.8349991	-10.00800037	1.979040742	0.9058086872	-1.865114927	1.0
[Spine2]
3	0	91	-13.73399925	1.940242052	-0.9126169086	-0.3452445567	1.0
4	0	91	-13.73399925	1.929807067	-0.1295987964	-1.569896221	1.0
5	0	91	-13.73399925	1.899843931	0.8798287511	-1.847804546	1.0
[Neck]
3	0	166.7169952	-25.16200066	-0.5840874314	1.356884122	-0.1073864847	1.0
4	0	166.7169952	-25.16200066	-0.5999132395	0.7786894441	0.8022385836	1.0
5	0	166.7169952	-25.16200066	-0.5740104318	0.2644924223	1.157032847	1.0
[Head]
3	0	96.17900085	16.84999847	-3.026485205	1.747690201	-2.101202488	1.0
4	0	96.17900085	16.84999847	-3.760742188	1.089963794	-2.443945408	1.0
5	0	96.17900085	16.84999847	-4.658763885	0.9274908304	-2.499588013	1.0
[LeftEye]
3	30.6760006	64.09500122	92.83599854	0	0	0	1.0
4	30.6760006	64.09500122	92.83599854	0	0	0	1.0
5	30.6760006	64.09500122	92.83599854	0	0	0	1.0
[RightEye]
3	-30.6760006	64.09500122	92.83499908	0	0	0	1.0
4	-30.6760006	64.09500122	92.83499908	0	0	0	1.0
5	-30.6760006	64.09500122	92.83499908	0	0	0	1.0
[LeftShoulder]
3	45.70400238	109.4599991	-26.28000069	2.153850794	-6.70872736	-14.18545437	1.0
4	45.70400238	109.4599991	-26.28000069	1.98613286	-6.101259232	-13.73148155	1.0
5	45.70400238	109.4599991	-26.28000069	1.724609375	-5.059807777	-13.13562584	1.0
[LeftArm]
3	105.923996	-5.24600029	-22.32099915	20.53527069	5.864200592	-63.210186	1.0
4	105.923996	-5.24600029	-22.32099915	17.6109848	10.36867523	-64.98793793	1.0
5	105.923996	-5.24600029	-22.32099915	15.20199013	13.21421623	-66.5414505	1.0
[LeftForeArm]
3	278.414978	-0.0009999999311	0	-3.182091177e-06	-10.73883343	-0.000176382091	1.0
4	278.414978	-0.0009999999311	0	6.358516202e-06	-9.900953293	-0.0002111093199	1.0
5	278.414978	-0.0009999999311	0	4.373487627e-06	-8.083958626	-0.0001947154378	1.0
[LeftHand]
3	283.2879944	0	0	2.347817421	0.4671230912	-15.41723728	1.0
4	283.2879944	0	0	1.603104115	-1.120514154	-15.98784542	1.0
5	283.2879944	0	0	2.003158331	-1.594077706	-17.12837029	1.0
[LeftHandThumb1]
3	24.6609993	-15.75	26.8239994	5.839803696	2.504242897	11.148386	1.0
4	24.6609993	-15.75	26.8239994	5.839803696	2.504242897	11.148386	1.0
5	24.6609993	-15.75	26.8239994	5.839803696	2.504242897	11.148386	1.0
[LeftHandThumb2]
3	32.29800034	-18.64699936	18.64699936	6.835632801	6.718122959	7.403739452	1.0
4	32.29800034	-18.64699936	18.64699936	7.775684357	6.175703049	7.193494797	1.0
5	32.29800034	-18.64699936	18.64699936	9.543112755	4.869262695	6.253239155	1.0
[LeftHandThumb3]
3	26.52600098	-15.31499958	15.31499958	-0.6732029319	-7.277395725	21.21491241	1.0
4	26.52600098	-15.31499958	15.31499958	-0.8163824677	-7.627902031	21.22521782	1.0
5	26.52600098	-15.31499958	15.31499958	-1.799328208	-10.1402998	21.01135445	1.0
[LeftHandThumb4]
3	19.54599953	-11.28499985	11.28499985	0	0	0	1.0
4	19.54599953	-11.28499985	11.28499985	0	0	0	1.0
5	19.54599953	-11.28499985	11.28499985	0	0	0	1.0
[LeftHandIndex1]
3	91.09299469	-5.170999527	22.60099792	-0.7774078846	-5.168352127	-16.37797737	1.0
4	91.09299469	-5.170999527	22.60099792	-0.7999705076	-4.988411427	-16.68695259	1.0
5	91.09299469	-5.170999527	22.60099792	-0.9312672019	-2.919865847	-21.07942963	1.0
[LeftHandIndex2]
3	36.76399994	0	0	-0.2024371624	1.524785042	-15.12438393	1.0
4	36.76399994	0	0	-0.2028608024	1.526367426	-15.14036369	1.0
5	36.76399994	0	0	-0.2046178579	1.532843947	-15.20626545	1.0
[LeftHandIndex3]
3	28.83100128	0	0	-0.2024386674	1.524783969	-15.12436867	1.0
4	28.83100128	0	0	-0.2028628439	1.526360273	-15.14037418	1.0
5	28.83100128	0	0	-0.2046250552	1.532852769	-15.2062664	1.0
[LeftHandIndex4]
3	23.92700005	0	0	0	0	0	1.0
4	23.92700005	0	0	0	0	0	1.0
5	23.92700005	0	0	0	0	0	1.0
[LeftHandMiddle1]
3	95.33399963	0	0	-1.551218033	3.981845856	-25.81770325	1.0
4	95.33399963	0	0	-1.56656754	4.079623699	-26.00821114	1.0
5	95.33399963	0	0	-1.816698074	4.948904037	-28.98361778	1.0
[LeftHandMiddle2]
3	36.98199844	0	0	-0.1260422766	1.207186699	-11.92033958	1.0
4	36.98199844	0	0	-0.1253327578	1.203843951	-11.88682365	1.0
5	36.98199844	0	0	-0.1261955351	1.207949519	-11.92793083	1.0
[LeftHandMiddle3]
3	29.50900078	0	0	-0.1714141667	1.405019045	-13.91090584	1.0
4	29.50900078	0	0	-0.1705917567	1.401701808	-13.87739944	1.0
5	29.50900078	0	0	-0.1716107726	1.405786276	-13.91864681	1.0
[LeftHandMiddle4]
3	28.3390007	0	0	0	0	0	1.0
4	28.3390007	0	0	0	0	0	1.0
5	28.3390007	0	0	0	0	0	1.0
[LeftHandRing1]
3	91.04499817	-0.4390000105	-18.65100098	-1.593407869	6.753022194	-26.35930443	1.0
4	91.04499817	-0.4390000105	-18.65100098	-1.623568058	6.879180431	-26.72923088	1.0
5	91.04499817	-0.4390000105	-18.65100098	-1.906597853	7.298385143	-30.0589695	1.0
[LeftHandRing2]
3	31.54000092	0	0	-0.3286676705	1.93198061	-19.30754662	1.0
4	31.54000092	0	0	-0.3291530013	1.933376193	-19.32206726	1.0
5	31.54000092	0	0	-0.3299269378	1.935559392	-19.34497261	1.0
[LeftHandRing3]
3	29.37700081	0	0	-0.3990069628	2.121990442	-21.2959938	1.0
4	29.37700081	0	0	-0.3995230198	2.123330593	-21.3101387	1.0
5	29.37700081	0	0	-0.4003505409	2.125439405	-21.3323307	1.0
[LeftHandRing4]
3	26.47500038	0	0	0	0	0	1.0
4	26.47500038	0	0	0	0	0	1.0
5	26.47500038	0	0	0	0	0	1.0
[LeftHandPinky1]
3	80.77799988	-4.887000084	-38.06099701	-2.515803576	8.727403641	-33.49687576	1.0
4	80.77799988	-4.887000084	-38.06099701	-2.545857906	8.90513134	-33.67415619	1.0
5	80.77799988	-4.887000084	-38.06099701	-2.666202068	8.855821609	-35.1035881	1.0
[LeftHandPinky2]
3	36	0	0	-0.2762753367	1.775452375	-17.68805313	1.0
4	36	0	0	-0.2760428488	1.774741054	-17.68070984	1.0
5	36	0	0	-0.2747172415	1.770580292	-17.63791656	1.0
[LeftHandPinky3]
3	21.14200211	0	0	-0.2762733996	1.775447249	-17.68805695	1.0
4	21.14200211	0	0	-0.2760458589	1.774747133	-17.68070984	1.0
5	21.14200211	0	0	-0.2747199833	1.770587206	-17.6378994	1.0
[LeftHandPinky4]
3	19.75699997	0	0	0	0	0	1.0
4	19.75699997	0	0	0	0	0	1.0
5	19.75699997	0	0	0	0	0	1.0
[RightShoulder]
3	-45.70000076	109.4620056	-26.28000069	1.740714073	4.688260555	14.35551739	1.0
4	-45.70000076	109.4620056	-26.28000069	1.887547493	5.595471859	13.80316162	1.0
5	-45.70000076	109.4620056	-26.28000069	2.208586931	7.074332237	13.95323849	1.0
[RightArm]
3	-105.9280014	-5.248000145	-22.32099915	25.59206963	21.42393875	49.42743301	1.0
4	-105.9280014	-5.248000145	-22.32099915	25.31592369	24.49740791	45.91121674	1.0
5	-105.9280014	-5.248000145	-22.32099915	24.84803772	27.05754089	41.73426819	1.0
[RightForeArm]
3	-278.414978	0	0	-9.820960258e-07	31.95331001	-1.101017733e-05	1.0
4	-278.414978	0	0	-4.93749485e-06	34.17975998	-2.736340321e-05	1.0
5	-278.414978	0	0	8.535790585e-06	34.67299652	2.080781269e-05	1.0
[RightHand]
3	-283.2879944	0	0.0009999999311	-0.5495729446	-5.058179855	11.38900566	1.0
4	-283.2879944	0	0.0009999999311	-0.1107071787	-3.589182138	11.64200687	1.0
5	-283.2879944	0	0.0009999999311	-0.07013849169	-2.200817585	9.804156303	1.0
[RightHandPinky1]
3	-80.76699829	-4.885000229	-38.06000137	-2.274764061	-1.457412124	30.83837891	1.0
4	-80.76699829	-4.885000229	-38.06000137	-2.448788166	-0.6660048366	31.31960297	1.0
5	-80.76699829	-4.885000229	-38.06000137	-2.480614662	-0.4029797912	31.17307854	1.0
[RightHandPinky2]
3	-36	0	0.0009999999311	-0.5689622164	-2.225728989	28.6957016	1.0
4	-36	0	0.0009999999311	-0.5697520971	-2.227175236	28.71611404	1.0
5	-36	0	0.0009999999311	-0.5700217485	-2.227660179	28.7229023	1.0
[RightHandPinky3]
3	-21.14200211	0	0	-0.178229928	-1.273584366	15.93161106	1.0
4	-21.14200211	0	0	-0.1782256216	-1.27360177	15.93175697	1.0
5	-21.14200211	0	0	-0.1782203615	-1.27361536	15.93180847	1.0
[RightHandPinky4]
3	-19.75699997	0	0	0	0	0	1.0
4	-19.75699997	0	0	0	0	0	1.0
5	-19.75699997	0	0	0	0	0	1.0
[RightHandRing1]
3	-91.03599548	-0.4390000105	-18.65100098	-1.423061013	-1.68370688	26.00834084	1.0
4	-91.03599548	-0.4390000105	-18.65100098	-1.475509405	-1.455117941	26.74668694	1.0
5	-91.03599548	-0.4390000105	-18.65100098	-1.490094066	-1.50884223	26.94647408	1.0
[RightHandRing2]
3	-31.54000092	0	0	-1.503839493	-3.417200565	47.49686432	1.0
4	-31.54000092	0	0	-1.504182339	-3.417496443	47.50237656	1.0
5	-31.54000092	0	0	-1.503287911	-3.416696787	47.4875412	1.0
[RightHandRing3]
3	-29.37700081	0	0	-0.3752900064	-1.82781589	23.20388985	1.0
4	-29.37700081	0	0	-0.3754200339	-1.828125477	23.20809555	1.0
5	-29.37700081	0	0	-0.3749529421	-1.827023506	23.19347572	1.0
[RightHandRing4]
3	-26.47500038	0	0	0	0	0	1.0
4	-26.47500038	0	0	0	0	0	1.0
5	-26.47500038	0	0	0	0	0	1.0
[RightHandMiddle1]
3	-95.32500458	0	0	-1.269644737	0.3429482579	23.92840767	1.0
4	-95.32500458	0	0	-1.293820262	0.3202491403	24.27423668	1.0
5	-95.32500458	0	0	-1.292831898	0.160836488	24.25013542	1.0
[RightHandMiddle2]
3	-36.98199844	0	0	-0.8571421504	-2.685837269	35.39372253	1.0
4	-36.98199844	0	0	-0.8597022891	-2.689440727	35.44823837	1.0
5	-36.98199844	0	0	-0.867652297	-2.700573206	35.6175766	1.0
[RightHandMiddle3]
3	-29.50900078	0	0	-0.2967271209	-1.63452661	20.60233688	1.0
4	-29.50900078	0	0	-0.2982750535	-1.638629913	20.656744	1.0
5	-29.50900078	0	0	-0.3031381965	-1.651472569	20.82632446	1.0
[RightHandMiddle4]
3	-28.3390007	0	0.0009999999311	0	0	0	1.0
4	-28.3390007	0	0.0009999999311	0	0	0	1.0
5	-28.3390007	0	0.0009999999311	0	0	0	1.0
[RightHandIndex1]
3	-91.08300018	-5.167999744	22.60099792	-1.181427479	4.861932755	23.09823799	1.0
4	-91.08300018	-5.167999744	22.60099792	-1.251080155	4.988360882	24.11833763	1.0
5	-91.08300018	-5.167999744	22.60099792	-1.276278019	4.961210728	24.47390556	1.0
[RightHandIndex2]
3	-36.76399994	0	0	-0.3905655444	-1.863018274	23.67826653	1.0
4	-36.76399994	0	0	-0.39058882	-1.863060117	23.6788559	1.0
5	-36.76399994	0	0	-0.3881213367	-1.857438087	23.60273743	1.0
[RightHandIndex3]
3	-28.83100128	0	0	-0.07645148784	-0.8388724923	10.4152813	1.0
4	-28.83100128	0	0	-0.07647063583	-0.8389356136	10.41587257	1.0
5	-28.83100128	0	0	-0.07535868138	-0.8328729272	10.33984184	1.0
[RightHandIndex4]
3	-23.92700005	0	0	0	0	0	1.0
4	-23.92700005	0	0	0	0	0	1.0
5	-23.92700005	0	0	0	0	0	1.0
[RightHandThumb1]
3	-24.64799881	-15.72700024	26.82600021	12.78110313	-2.167885065	-4.410644054	1.0
4	-24.64799881	-15.72700024	26.82600021	12.78110313	-2.167885065	-4.410644054	1.0
5	-24.64799881	-15.72700024	26.82600021	12.78110313	-2.167885065	-4.410644054	1.0
[RightHandThumb2]
3	-32.29800034	-18.64699936	18.64699936	7.93616724	-15.80692863	-9.643795967	1.0
4	-32.29800034	-18.64699936	18.64699936	7.730517387	-14.29184055	-9.246831894	1.0
5	-32.29800034	-18.64699936	18.64699936	8.078936577	-14.83373642	-9.134813309	1.0
[RightHandThumb3]
3	-26.52600098	-15.31399918	15.31399918	-15.54170036	-4.714953899	-11.28734875	1.0
4	-26.52600098	-15.31399918	15.31399918	-15.57213211	-4.642899513	-11.31006432	1.0
5	-26.52600098	-15.31399918	15.31399918	-15.58817196	-4.604942799	-11.322052	1.0
[RightHandThumb4]
3	-19.54599953	-11.28499985	11.28499985	0	0	0	1.0
4	-19.54599953	-11.28499985	11.28499985	0	0	0	1.0
5	-19.54599953	-11.28499985	11.28499985	0	0	0	1.0
[LeftUpLeg]
3	82.07800293	-67.51699829	-15.99599934	-30.16160965	8.130139351	-1.925774097	1.0
4	82.07800293	-67.51699829	-15.99599934	-34.57940292	6.450609207	-0.01205588039	1.0
5	82.07800293	-67.51699829	-15.99599934	-40.56510544	5.335960388	1.109099865	1.0
[LeftLeg]
3	0	-443.7049866	2.845999956	16.11577225	2.582917929	-1.522964716	1.0
4	0	-443.7049866	2.845999956	6.425841331	3.584568262	1.706491828	1.0
5	0	-443.7049866	2.845999956	6.350345612	2.876882792	4.44653368	1.0
[LeftFoot]
3	0	-444.2789917	-29.8219986	3.649020672	0.4159819484	-4.849892616	1.0
4	0	-444.2789917	-29.8219986	0.5043712258	0.3375473917	-6.660663128	1.0
5	0	-444.2789917	-29.8219986	-8.051258087	0.08020991832	-5.476589203	1.0
[LeftToeBase]
3	0	-87.28699493	107.1060028	-5.393571854	2.016832696e-06	2.285211167e-06	1.0
4	0	-87.28699493	107.1060028	-7.160099983	1.947449164e-06	4.969549082e-06	1.0
5	0	-87.28699493	107.1060028	-8.101491928	-5.273673196e-07	2.522849172e-06	1.0
[RightUpLeg]
3	-82.07800293	-67.51699829	-15.99599934	-2.282809734	-10.46303368	2.509381771	1.0
4	-82.07800293	-67.51699829	-15.99599934	-0.2098486722	-12.34734631	2.656279802	1.0
5	-82.07800293	-67.51699829	-15.99599934	3.568521738	-13.29458714	1.664158344	1.0
[RightLeg]
3	0	-443.7049866	2.861999989	10.62321663	8.10309124	-2.197582722	1.0
4	0	-443.7049866	2.861999989	14.55316734	4.702019691	-1.707812786	1.0
5	0	-443.7049866	2.861999989	15.98197842	2.34575963	-2.21235919	1.0
[RightFoot]
3	0	-444.2770081	-29.83799934	-13.28191948	-0.005457423627	-0.354724288	1.0
4	0	-444.2770081	-29.83799934	-17.99970436	6.684498787	-1.157163739	1.0
5	0	-444.2770081	-29.83799934	-22.06541824	11.36882496	-1.237640381	1.0
[RightToeBase]
3	0	-87.28699493	107.1060028	-4.471828938	5.567996482e-07	1.770548153e-07	1.0
4	0	-87.28699493	107.1060028	-4.861859322	1.350455477e-06	2.537476576e-07	1.0
5	0	-87.28699493	107.1060028	-5.952967167	7.719234532e-07	6.613157097e-07	1.0
[EndOfFile]
